<svg width="260" height="255" viewBox="0 0 260 255" fill="currentColor" xmlns="http://www.w3.org/2000/svg">
<path d="M0 0.48158C23.1582 0.387858 46.3163 0.317465 69.4746 0.274331C80.2291 0.253765 90.9834 0.22576 101.738 0.179822C111.119 0.139771 120.5 0.114104 129.88 0.105226C134.841 0.100042 139.801 0.0879842 144.762 0.0586598C149.445 0.0312007 154.128 0.0231955 158.812 0.0291493C160.517 0.0280625 162.222 0.0202923 163.927 0.00475808C191.266 -0.2318 216.56 8.34372 236.316 27.673C252.281 44.3809 259.42 65.6807 259 88.4816C257.706 110.523 247.983 129.588 232 144.482C213.816 160.491 191.458 167.303 167.59 167.798C166.31 167.829 166.31 167.829 165.005 167.861C162.316 167.926 159.627 167.985 156.938 168.044C155.1 168.087 153.262 168.131 151.424 168.175C146.949 168.281 142.475 168.383 138 168.482C137.986 169.757 137.986 169.757 137.972 171.058C137.549 201.65 133.846 227.408 110.859 249.825C105.632 254.482 105.632 254.482 103 254.482C102.008 233.453 101.72 212.436 101.65 191.387C101.636 187.711 101.608 184.036 101.568 180.36C101.518 175.842 101.494 171.324 101.487 166.806C101.48 165.109 101.465 163.411 101.441 161.714C101.2 143.821 101.2 143.821 107 136.482C112.674 131.791 117.637 130.364 124.939 130.34C126.138 130.333 127.337 130.326 128.573 130.318C129.867 130.314 131.162 130.31 132.496 130.306C133.849 130.295 135.202 130.284 136.556 130.272C142.287 130.219 148.018 130.171 153.75 130.156C157.262 130.145 160.775 130.116 164.287 130.074C166.25 130.056 168.214 130.059 170.177 130.062C185.268 129.859 199.063 125.176 210 114.482C218.29 104.46 222.59 93.4274 221.816 80.3878C220.197 66.3638 213.459 55.1893 202.434 46.4464C190.701 38.4024 178.774 36.8973 164.961 36.9652C162.335 36.978 159.711 36.9663 157.085 36.9491C152.457 36.9226 147.829 36.9168 143.2 36.9182C135.788 36.9205 128.376 36.906 120.964 36.8626C118.397 36.8529 115.83 36.8615 113.263 36.8713C104.705 36.8612 97.1463 36.4001 89 33.4816C88.2224 33.2249 87.4448 32.9681 86.6437 32.7036C84.2931 31.9176 81.9608 31.0908 79.6289 30.2511C78.7639 29.9432 77.8989 29.6354 77.0077 29.3182C74.1911 28.3143 71.3768 27.3044 68.5625 26.2941C66.5923 25.5901 64.622 24.8863 62.6516 24.1828C41.7357 16.7044 20.8636 9.10454 0 1.48158C0 1.15158 0 0.82158 0 0.48158Z" fill="currentColor"/>
</svg>
